# xmcd CD database file
#
# Track frame offsets:
#	151
#	12814
#	37959
#	74251
#	97351
#	122716
#	159096
#	201151
#
# Disc length: 2909 seconds
#
# Revision: 0
# Processed by: cddbd v1.5.1PL0 Copyright (c) Steve Scherf et al.
# Submitted via: CDex 1.51
#
DISCID=630b5b08
DTITLE=Vic Vogel - Awesome!
DYEAR=2004
DGENRE=Jazz
TTITLE0=Say When
TTITLE1=Vanessa
TTITLE2=Ballad for Duke
TTITLE3=Take the "A" Train
TTITLE4=Tempus Fugit
TTITLE5=Nardis
TTITLE6=Blues No2
TTITLE7=Duke's Shuffle
EXTD=YEAR: 2004
EXTT0=
EXTT1=
EXTT2=
EXTT3=
EXTT4=
EXTT5=
EXTT6=
EXTT7=
PLAYORDER=
